<svg xmlns="http://www.w3.org/2000/svg" version="1.1" xmlns:xlink="http://www.w3.org/1999/xlink" viewBox="0 0 14.7205810546875 15.619238699739896"><g transform="matrix(0.8571428571428571,0,0,0.8571428571428571,2.1029401506696432,11.487413662335742)"><rect width="18.072668875521146" height="18.072668875521146" x="-2.9027589983074478" y="-13.327094468970666" fill="#1c3423"></rect><g transform="matrix(1,0,0,1,0,0)" clip-path="url(#SvgjsClipPath50554)"><g clip-path="url(#SvgjsClipPath50549e14c26a9-61c9-4f76-996e-259209a108d4)"><path d=" M 5.661387418747518 -1.1445528449818436 C 5.641005202026413 -1.3461103214461065 5.609299531571359 -1.5431384164167916 5.577593861116307 -1.7424312021342647 C 5.530035355433729 -1.7696074910957371 5.487006231244729 -1.8058425430443705 5.448506488549308 -1.848871667233368 C 5.348860095690571 -1.9485180600921055 5.253743084325413 -2.109311103114159 5.228831486110728 -2.1546049180499462 C 5.212978650883202 -2.184045897758212 5.199390506402466 -2.213486877466476 5.18353767117494 -2.242927857174738 C 4.972921431723519 -2.3493683222738415 4.789481481233571 -2.507896674549105 4.601512149250046 -2.648307500850052 C 4.390895909798624 -2.806835853125314 4.180279670347204 -2.969893586894157 3.9991044106040463 -3.160127609624472 C 3.6616654893324148 -3.5179487476172095 3.503137137057152 -3.9686222062283125 3.2744033716314154 -4.389854685131156 C 3.0501989876992575 -4.475912933509156 2.9641407393212584 -4.84505752523584 2.99584640977631 -5.048879692446892 C 3.0411402247120995 -5.352348252516681 3.285726825365363 -5.5493763474873665 3.5914600761819417 -5.461053408362576 C 3.6050482206626784 -5.456524026868997 3.616371674396625 -5.447465263881838 3.620901055890205 -5.433877119401104 C 3.620901055890205 -5.429347737907524 3.6503420355984684 -5.4270830471607345 3.672988943066363 -5.4270830471607345 C 3.996839719857258 -5.44520057313505 4.322955187394941 -5.476906243590102 4.646805964185836 -5.481435625083682 C 4.818922460941835 -5.481435625083682 5.011421174418941 -5.4746415528433126 5.149567309973099 -5.35687763401026 C 5.31262504374194 -5.216466807709312 5.376036384652045 -4.987733042283576 5.378301075398835 -4.779381493578946 C 5.378301075398835 -4.58688278010184 5.366977621664889 -4.33097272571463 5.228831486110731 -4.181503136426525 C 5.337536641956624 -4.233591023602682 5.475682777510782 -4.260767312564156 5.604770150077782 -4.276620147791682 C 5.611564222318151 -4.362678396169684 5.6183582945585195 -4.448736644547682 5.6342111297860455 -4.534794892925681 C 5.631946439039256 -4.5370595836724705 5.629681748292466 -4.53932427441926 5.627417057545676 -4.54158896516605 C 5.6025054593309935 -4.550647728153207 5.579858551863099 -4.561971181887156 5.5572116443952035 -4.577824017114682 C 5.532300046180519 -4.5982062338357865 5.4960649942318875 -4.627647213544051 5.484741540497941 -4.663882265492682 C 5.405477364360309 -4.765793349098209 5.369242312411678 -4.924321701373472 5.35338947718415 -5.030762166472576 C 5.346595404943783 -5.080585362901944 5.3420660234502035 -5.130408559331314 5.337536641956624 -5.180231755760683 C 5.3262131882226775 -5.23005495219005 5.314889734488729 -5.279878148619418 5.308095662248362 -5.331966035795578 C 5.190331743415309 -5.585611399435998 5.052185607861151 -5.83246269083605 4.866480966624414 -6.038549548793891 C 4.538100808339941 -6.403164759026996 4.123662401677468 -6.686251102375681 3.711488685761784 -6.948955229003259 C 3.263079917897468 -7.234306263098732 2.796553624058837 -7.494745698979522 2.3617330006752586 -7.805008331289679 C 2.1601755242109952 -7.949948539084206 1.9676768107338904 -8.10394750986589 1.7547958805356803 -8.23303488243289 C 1.7049726841063118 -8.262475862141153 1.6506201061833645 -8.291916841849417 1.5985322190072067 -8.32135782155768 C 1.107094326953891 -7.515127915700628 0.8240079836052071 -6.570751874289418 0.8240079836052071 -5.558435110474524 C 0.8240079836052071 -2.8408062143271575 2.866759037209311 -0.598762375005581 5.500594375725467 -0.2862350519486334 C 5.545888190661255 -0.3337935576312141 5.582123242609888 -0.3881461355541589 5.604770150077782 -0.4538221672110545 C 5.6795049447218355 -0.6757618603964222 5.6795049447218355 -0.9135543888093167 5.659122728000728 -1.1445528449818418 L 5.659122728000728 -1.1445528449818418 Z" fill="#67a97b" transform="matrix(1,0,0,1,0,0)" fill-rule="nonzero"></path></g><g clip-path="url(#SvgjsClipPath50549e14c26a9-61c9-4f76-996e-259209a108d4)"><path d=" M 9.989211435862199 -5.698845936775472 C 9.504567616049254 -5.649022740346102 9.019923796236306 -5.562964491968104 8.542074048663727 -5.467847480602946 C 8.089135899305832 -5.379524541478157 7.62713898696078 -5.2730840763790505 7.2059065080579385 -5.080585362901944 C 6.993025577859728 -4.985468351536786 6.793732792142254 -4.8744985049441025 6.635204439866992 -4.700117317441314 C 6.5151758302871485 -4.568765254127524 6.413264746681624 -4.426089737079788 6.304559590835728 -4.28567891077884 C 6.576322480450465 -4.272090766298104 6.850350060811992 -4.235855714349472 7.110789496692782 -4.170179682692576 C 7.271582539714834 -4.129415249250366 7.704138472351622 -3.973151587721892 7.618080223973621 -3.7376237500557865 C 7.579580481278202 -3.6289185942098916 7.468610634685517 -3.5677719440465774 7.36896424182678 -3.5224781291107874 C 7.210435889551516 -3.450008025213524 7.042848774289096 -3.4001848287841545 6.872996968279886 -3.3571557045951543 C 6.592175315677993 -3.284685600697892 6.297765518595361 -3.2439211672556816 6.021473247487045 -3.157862918877682 C 5.985238195538412 -3.0921868872207874 5.95126783433657 -3.021981474070314 5.921826854628308 -2.942717297932682 C 5.865209585958572 -2.793247708644577 5.813121698782412 -2.6392487378628946 5.702151852189729 -2.5192201282830524 C 5.699887161442939 -2.516955437536261 5.6953577799493615 -2.514690746789473 5.693093089202572 -2.516955437536261 C 5.690828398455782 -2.512426056042683 5.688563707708995 -2.510161365295893 5.684034326215415 -2.5056319838023136 C 5.686299016962205 -2.501102602308734 5.688563707708995 -2.496573220815156 5.688563707708995 -2.4897791485747867 C 5.693093089202572 -2.281427599870156 5.6636521094943095 -2.0776054326591034 5.688563707708995 -1.866989193207683 C 5.7112106151768876 -1.683549242717735 5.742916285631941 -1.5023739829745786 5.765563193099834 -1.3189340324846306 C 5.804062935795256 -1.01999485390842 5.869738967452151 -0.6440561899413684 5.670446181734677 -0.3881461355541571 C 5.665916800241099 -0.3836167540605775 5.66138741874752 -0.3813520633137877 5.656858037253941 -0.3813520633137877 C 5.645534583519992 -0.3609698465926847 5.6342111297860455 -0.3405876298715782 5.622887676052099 -0.3224701038972615 C 5.61382891306494 -0.3088819594165244 5.6025054593309935 -0.2930291241889975 5.588917314850256 -0.2771762889614724 C 5.767827883846624 -0.2590587629871557 5.94900314358978 -0.25 6.132443094079729 -0.25 C 9.065217611172097 -0.25 11.443142895301042 -2.6279252841289438 11.443142895301042 -5.560699801221309 C 11.443142895301042 -8.493474318313677 11.443142895301042 -5.585611399435995 11.443142895301042 -5.596934853169943 C 11.323114285721198 -5.639963977358941 11.160056551952358 -5.701110627522259 11.141939025978042 -5.703375318269047 C 10.75694159902383 -5.739610370217679 10.37420886281641 -5.739610370217679 9.98694674511541 -5.701110627522257 L 9.98694674511541 -5.701110627522257 Z" fill="#67a97b" transform="matrix(1,0,0,1,0,0)" fill-rule="nonzero"></path></g><g clip-path="url(#SvgjsClipPath50549e14c26a9-61c9-4f76-996e-259209a108d4)"><path d=" M 3.2449623919231514 -8.581797257438469 C 3.899458017745309 -8.466298029352206 4.5290420453527815 -8.269269934381523 5.088420659809781 -7.904654724148417 C 5.129185093251993 -7.877478435186943 5.174478908187782 -7.850302146225469 5.2197727231235715 -7.823125857263996 C 5.149567309973099 -7.9839189002860484 5.2197727231235715 -8.1877410674971 5.271860610299729 -8.344004729025574 C 5.3262131882226775 -8.509327153541205 5.39868329211994 -8.672384887310049 5.498329684978677 -8.817325095104575 C 5.668181490987887 -9.064176386504627 5.899179947160413 -9.25893979072852 6.17320752752194 -9.38576247254873 C 6.449499798630254 -9.512585154368942 6.7461742864596745 -9.582790567519416 7.047378155782676 -9.621290310214837 C 7.212700580298308 -9.643937217682732 7.380287695560728 -9.657525362163469 7.547874810823148 -9.664319434403836 C 7.701873781604834 -9.671113506644206 7.862666824626886 -9.68923103261852 8.014401104661783 -9.673378197390996 C 8.032518630636098 -9.673378197390996 8.118576879014098 -9.591849330506573 8.127635642001255 -9.580525876772626 C 8.195576364404939 -9.494467628394627 8.256723014568255 -9.406144689269837 8.331457809212308 -9.329145203878996 C 8.40392791310957 -9.254410409234943 8.480927398500413 -9.18420499608447 8.546603430157308 -9.104940819946837 C 8.655308586003201 -8.971324065886257 8.730043380647254 -8.824119167344943 8.70966116392615 -8.649737979842154 C 8.664367348990359 -8.287387460355838 8.41072198534994 -7.970330755805312 8.170664766190253 -7.709891319924523 C 7.926078165536992 -7.442657811803365 7.647521203681886 -7.173159612935418 7.341787952865308 -6.976131517964734 C 7.03152532055515 -6.776838732247261 6.680498254802782 -6.6749276486417335 6.374765003986203 -6.48242893516463 C 6.370235622492624 -6.48016424441784 6.365706240999044 -6.47563486292426 6.361176859505465 -6.473370172177471 C 6.29097144635499 -6.407694140520575 6.21397196096415 -6.348812181104049 6.136972475573308 -6.2876655309407345 C 6.073561134663202 -6.237842334511365 6.014679175246678 -6.181225065841629 5.94900314358978 -6.1336665601590505 C 5.939944380602624 -6.063461147008576 5.930885617615465 -5.9955204246048925 5.9263562361218876 -5.925315011454418 C 5.9263562361218876 -5.893609340999366 5.9263562361218876 -5.864168361291102 5.924091545375098 -5.83246269083605 C 5.944473762096202 -5.880021196518628 5.967120669564096 -5.925315011454418 5.987502886285202 -5.966079444896627 C 6.039590773461361 -6.063461147008576 6.107531495865044 -6.154048776880154 6.189060362749466 -6.226518880777417 C 6.345324024277937 -6.364665016331575 6.535558047008254 -6.468840790683889 6.741644904966096 -6.516399296366469 C 7.024731248314779 -6.582075328023365 7.378023004813938 -6.550369657568311 7.611286151733252 -6.364665016331575 C 7.62487429621399 -6.360135634837997 7.636197749947937 -6.355606253344418 7.649785894428673 -6.353341562597628 C 7.688285637124094 -6.346547490357259 7.917019402549831 -6.353341562597628 7.932872237777357 -6.317106510648997 C 7.946460382258095 -6.280871458700366 7.864931515373673 -6.255959860485681 7.846813989399358 -6.237842334511365 C 7.82869646342504 -6.21746011779026 7.509375068127726 -6.081578672982892 7.461816562445146 -6.065725837755366 C 7.355376097346042 -6.0272260950599446 7.246670941500146 -5.993255733858103 7.137965785654252 -5.963814754149839 C 6.750703667953252 -5.861903670544312 6.29097144635499 -5.864168361291102 6.016943865993464 -5.531258821513049 C 5.7338575226447785 -5.18702582800105 5.765563193099831 -4.71823484341563 5.77462195608699 -4.299267055259578 C 5.9490031435897786 -4.283414220032052 6.130178403332938 -4.244914477336631 6.261530466646726 -4.380795922143999 C 6.336265261290778 -4.457795407534841 6.433646963402728 -4.54838303740642 6.481205469085306 -4.648029430265156 C 6.528763974767886 -4.747675823123894 6.481205469085306 -4.80655778254042 6.435911654149516 -4.897145412411998 C 6.331735879797199 -5.100967579623052 6.501587685806409 -5.23911371517721 6.651057275094516 -5.35914232475705 C 6.820909081103725 -5.499553151057998 7.008878413087253 -5.62184645138463 7.203641817311145 -5.728286916483734 C 7.885313732094777 -6.099696198957207 8.655308586003198 -6.398635377533418 9.443420965885934 -6.355606253344418 C 9.817094939106196 -6.335224036623313 10.204357056807197 -6.267283314219627 10.553119431812775 -6.124607797171892 C 10.845264538148616 -6.00684387833884 11.117027427763352 -5.83699207232963 11.411437224845983 -5.723757534990156 C 11.420495987833142 -5.723757534990156 11.4295547508203 -5.7192281534965765 11.440878204554245 -5.714698772002998 C 11.361614028416614 -8.57726787594489 9.015394414742723 -10.873664293189416 6.132443094079725 -10.873664293189416 C 3.2494917734167275 -10.873664293189416 2.8509062019817795 -10.0379934076241 1.883883253102675 -8.747119681954102 C 2.0152353164164643 -8.735796228220154 2.1465873797302537 -8.719943392992628 2.2711453708036746 -8.70861993925868 C 2.594996147594569 -8.676914268803628 2.9211116151322525 -8.642943907601786 3.240433010429569 -8.58632663893205 L 3.240433010429569 -8.58632663893205 Z" fill="#67a97b" transform="matrix(1,0,0,1,0,0)" fill-rule="nonzero"></path></g><g clip-path="url(#SvgjsClipPath50549e14c26a9-61c9-4f76-996e-259209a108d4)"><path d=" M 5.505123757219044 -2.306339198084844 C 5.450771179296098 -2.2519866201618957 5.396418601373151 -2.199898732985739 5.344330714196992 -2.1478108458095804 C 5.35112478643736 -2.1274286290884756 5.360183549424518 -2.107046412367369 5.369242312411676 -2.091193577139844 C 5.391889219879571 -2.0481644529508447 5.414536127347466 -2.0074000195086334 5.441712416308939 -1.9689002768132138 C 5.473418086763993 -1.9258711526242127 5.509653138712624 -1.8851067191820015 5.557211644395202 -1.862459811714107 C 5.557211644395202 -1.8760479561948458 5.552682262901624 -1.8919007914223709 5.550417572154832 -1.905488935903108 C 5.532300046180517 -2.034576308470106 5.507388447965834 -2.1727224440242647 5.505123757219044 -2.306339198084844 L 5.505123757219044 -2.306339198084844 Z" fill="#67a97b" transform="matrix(1,0,0,1,0,0)" fill-rule="nonzero"></path></g><g clip-path="url(#SvgjsClipPath50549e14c26a9-61c9-4f76-996e-259209a108d4)"><path d=" M 5.52777066468694 -3.481713695668578 C 5.455300560789677 -3.51341936612363 5.364712930918097 -3.5451250365786837 5.2809193732868875 -3.588154160767684 C 5.301301590007993 -3.574566016286946 5.323948497475886 -3.55871318105942 5.346595404943781 -3.5451250365786837 C 5.5119178294594136 -3.431890499239211 5.73612221339157 -3.2733621469639473 5.819915771022782 -3.0740693612464733 C 5.849356750731044 -3.155598228130895 5.86294489521178 -3.243921167255685 5.801798245048464 -3.311861889659368 C 5.729328141151202 -3.3933907565437895 5.6251523667988845 -3.4409492622263675 5.52550597394015 -3.4839783864153677 L 5.52550597394015 -3.4839783864153677 Z" fill="#67a97b" transform="matrix(1,0,0,1,0,0)" fill-rule="nonzero"></path></g><g clip-path="url(#SvgjsClipPath50549e14c26a9-61c9-4f76-996e-259209a108d4)"><path d=" M 5.0499209171143615 -3.81688792619342 C 5.0068917929253605 -3.9482399895072096 5.043126844873992 -4.043357000872367 5.122391021011624 -4.111297723276052 C 5.034068081886835 -4.113562414022842 4.938951070521677 -4.1928265901604735 4.875539729611571 -4.2381204050962635 C 4.696629160615203 -4.355884323929314 4.524512663859203 -4.487236387243105 4.356925548596782 -4.620853141303684 C 4.23689693901694 -4.715970152668842 4.116868329437098 -4.813351854780788 4.003633792097625 -4.917527629133105 C 3.942487141934309 -4.747675823123894 3.9696634308957823 -4.543853655912842 3.8700170380370453 -4.3921193758779475 C 4.0217513180719395 -4.306061127499947 4.168956216613256 -4.210944116134789 4.32069049664815 -4.12715055850358 C 4.596982767756466 -3.973151587721894 4.886863183345518 -3.8350054521677377 5.1586260729602555 -3.6696830276521055 C 5.108802876530886 -3.710447461094316 5.070303133835465 -3.7602706575236855 5.049920917114361 -3.8191526169402117 L 5.049920917114361 -3.8191526169402117 Z" fill="#67a97b" transform="matrix(1,0,0,1,0,0)" fill-rule="nonzero"></path></g><g clip-path="url(#SvgjsClipPath50549e14c26a9-61c9-4f76-996e-259209a108d4)"><path d=" M 5.776886646833781 -5.880021196518628 C 5.684034326215413 -5.793962948140629 5.548152881408045 -5.662610884826838 5.48021215900436 -5.553905728980944 C 5.462094633030044 -5.524464749272682 5.441712416308941 -5.497288460311208 5.421330199587835 -5.472376862096523 C 5.425859581081413 -5.372730469237788 5.4190655088410455 -5.270819385632262 5.421330199587835 -5.19381990024142 C 5.428124271828202 -5.1666436112799445 5.432653653321782 -5.139467322318472 5.439447725562151 -5.112291033356998 C 5.455300560789677 -5.051144383193682 5.475682777510782 -4.994527114523946 5.498329684978677 -4.937909845854208 C 5.543623499914466 -4.840528143742262 5.600240768584202 -4.7522052046174705 5.670446181734677 -4.666146956239472 C 5.677240253975044 -4.811087164033997 5.699887161442939 -4.956027371828524 5.729328141151203 -5.080585362901944 C 5.770092574593414 -5.239113715177208 5.847092059984256 -5.388583304465314 5.835768606250308 -5.558435110474524 C 5.82897453400994 -5.66714026632042 5.754239739365886 -5.769051349925944 5.770092574593414 -5.880021196518628" fill="#67a97b" transform="matrix(1,0,0,1,0,0)" fill-rule="nonzero"></path></g></g><g><path d=" M 0.34650000000000003 0.9209999999999998 C 0.366 0.8774999999999998 0.486 0.4019999999999998 0.5145 0.31499999999999984 C 0.528 0.27449999999999986 0.5655 0.2174999999999998 0.5655 0.2054999999999998 C 0.5655 0.19199999999999984 0.5145 0.16049999999999975 0.47400000000000003 0.1409999999999998 L 0.687 0.1409999999999998 C 0.726 0.1409999999999998 0.7785 0.11699999999999977 0.783 0.11549999999999983 C 0.78 0.12149999999999983 0.756 0.17099999999999982 0.756 0.1994999999999998 C 0.756 0.23699999999999977 0.8310000000000001 0.2699999999999998 0.8685 0.2699999999999998 C 0.9165 0.2699999999999998 0.9555 0.14249999999999985 0.9555 0.0854999999999998 C 0.9555 0.04799999999999982 0.8805000000000001 0.014999999999999902 0.843 0.014999999999999902 L 0.246 0.014999999999999902 C 0.1665 0.014999999999999902 0 0.19349999999999978 0 0.24899999999999978 C 0 0.28649999999999975 0.0855 0.4229999999999998 0.1155 0.4229999999999998 C 0.1455 0.4229999999999998 0.2205 0.35699999999999976 0.2205 0.3344999999999998 C 0.2205 0.3134999999999998 0.1395 0.23999999999999977 0.1395 0.2054999999999998 C 0.1395 0.18449999999999978 0.17550000000000002 0.1409999999999998 0.201 0.1409999999999998 L 0.41400000000000003 0.1409999999999998 C 0.3885 0.16799999999999982 0.3525 0.22799999999999976 0.3435 0.26549999999999985 C 0.321 0.3524999999999998 0.1965 0.8219999999999998 0.18 0.8684999999999998 C 0.165 0.9134999999999998 0.0915 0.9719999999999999 0.0915 0.9839999999999998 C 0.0915 0.9974999999999998 0.198 1.0649999999999997 0.213 1.0649999999999997 C 0.2295 1.0649999999999997 0.3225 0.9779999999999998 0.34650000000000003 0.9209999999999998 M 0.555 0.9344999999999998 C 0.555 1.0019999999999998 0.6900000000000001 1.0649999999999997 0.7575000000000001 1.0649999999999997 C 0.8655 1.0649999999999997 0.9555 0.9284999999999999 1.0365 0.7784999999999997 C 1.0365 0.7784999999999997 1.0575 0.7439999999999998 1.0575 0.7259999999999998 C 1.0575 0.7079999999999997 1.026 0.6839999999999998 1.0065 0.6839999999999998 C 0.987 0.6839999999999998 0.975 0.7109999999999999 0.975 0.7109999999999999 C 0.8985 0.8459999999999999 0.8175 0.9614999999999998 0.774 0.9614999999999998 C 0.759 0.9614999999999998 0.735 0.9389999999999998 0.735 0.9194999999999998 C 0.735 0.8144999999999998 0.8565 0.47699999999999976 0.8565 0.4424999999999998 C 0.8565 0.4139999999999998 0.7545000000000001 0.35999999999999976 0.7365 0.35999999999999976 C 0.714 0.35999999999999976 0.6930000000000001 0.37049999999999983 0.687 0.39149999999999985 C 0.6615 0.4844999999999998 0.555 0.8639999999999999 0.555 0.9344999999999998 M 1.45803662109375 0.9194999999999998 C 1.45803662109375 0.8399999999999999 1.55103662109375 0.5474999999999998 1.55103662109375 0.47699999999999976 C 1.55103662109375 0.42149999999999976 1.47003662109375 0.35999999999999976 1.42503662109375 0.35999999999999976 C 1.3470366210937499 0.35999999999999976 1.20003662109375 0.4484999999999998 1.20003662109375 0.4484999999999998 C 1.20003662109375 0.4484999999999998 1.12953662109375 0.35999999999999976 1.10403662109375 0.35999999999999976 C 1.08153662109375 0.35999999999999976 1.06203662109375 0.37049999999999983 1.05303662109375 0.39149999999999985 C 1.02153662109375 0.4934999999999998 0.90753662109375 0.9479999999999998 0.90753662109375 0.9869999999999999 C 0.90753662109375 1.0274999999999999 0.99603662109375 1.0649999999999997 1.03053662109375 1.0649999999999997 C 1.05303662109375 1.0649999999999997 1.05753662109375 1.0499999999999998 1.06353662109375 1.0304999999999997 C 1.07253662109375 0.9869999999999999 1.14153662109375 0.6839999999999998 1.18053662109375 0.5849999999999997 C 1.20303662109375 0.5279999999999998 1.28703662109375 0.4904999999999998 1.3185366210937501 0.4904999999999998 C 1.33803662109375 0.4904999999999998 1.36353662109375 0.5159999999999998 1.36353662109375 0.5414999999999998 C 1.36353662109375 0.5984999999999998 1.27953662109375 0.8384999999999998 1.27953662109375 0.9344999999999998 C 1.27953662109375 1.0019999999999998 1.41453662109375 1.0649999999999997 1.4820366210937501 1.0649999999999997 C 1.59003662109375 1.0649999999999997 1.67853662109375 0.9284999999999999 1.76103662109375 0.7784999999999997 C 1.76103662109375 0.7784999999999997 1.7805366210937499 0.7439999999999998 1.7805366210937499 0.7259999999999998 C 1.7805366210937499 0.7079999999999997 1.74903662109375 0.6839999999999998 1.7295366210937502 0.6839999999999998 C 1.7100366210937499 0.6839999999999998 1.69653662109375 0.7109999999999999 1.69653662109375 0.7109999999999999 C 1.6230366210937501 0.8459999999999999 1.5420366210937502 0.9614999999999998 1.49703662109375 0.9614999999999998 C 1.4835366210937502 0.9614999999999998 1.45803662109375 0.9389999999999998 1.45803662109375 0.9194999999999998 M 1.678563720703125 1.3695 C 1.678563720703125 1.4204999999999999 1.791063720703125 1.515 1.870563720703125 1.515 C 1.929063720703125 1.515 2.014563720703125 1.4879999999999998 2.040063720703125 1.4385 C 2.053563720703125 1.4099999999999997 2.083563720703125 1.3094999999999999 2.116563720703125 1.1849999999999998 C 2.188563720703125 1.1969999999999998 2.212563720703125 1.2344999999999997 2.236563720703125 1.2344999999999997 C 2.259063720703125 1.2344999999999997 2.293563720703125 1.1925 2.293563720703125 1.1669999999999998 C 2.293563720703125 1.1474999999999997 2.227563720703125 1.1129999999999998 2.137563720703125 1.1055 C 2.157063720703125 1.0334999999999999 2.175063720703125 0.9584999999999998 2.193063720703125 0.8879999999999998 C 2.250063720703125 0.6524999999999999 2.287563720703125 0.5129999999999998 2.298063720703125 0.4754999999999998 C 2.301063720703125 0.4664999999999998 2.304063720703125 0.44999999999999984 2.304063720703125 0.4394999999999998 C 2.304063720703125 0.41249999999999976 2.205063720703125 0.35999999999999976 2.176563720703125 0.35999999999999976 C 2.163063720703125 0.35999999999999976 2.149563720703125 0.3674999999999998 2.143563720703125 0.38849999999999985 C 2.125563720703125 0.44999999999999984 2.085063720703125 0.6569999999999998 2.038563720703125 0.7664999999999997 C 2.019063720703125 0.8129999999999998 1.929063720703125 0.9464999999999998 1.869063720703125 0.9464999999999998 C 1.855563720703125 0.9464999999999998 1.8285637207031251 0.9239999999999998 1.8285637207031251 0.9044999999999999 C 1.8285637207031251 0.8414999999999998 1.926063720703125 0.5129999999999998 1.935063720703125 0.4754999999999998 C 1.938063720703125 0.4664999999999998 1.941063720703125 0.44999999999999984 1.941063720703125 0.4394999999999998 C 1.941063720703125 0.41249999999999976 1.842063720703125 0.35999999999999976 1.813563720703125 0.35999999999999976 C 1.800063720703125 0.35999999999999976 1.788063720703125 0.3674999999999998 1.780563720703125 0.38849999999999985 C 1.746063720703125 0.4814999999999998 1.648563720703125 0.8489999999999998 1.648563720703125 0.9194999999999998 C 1.648563720703125 0.9824999999999998 1.765563720703125 1.0649999999999997 1.843563720703125 1.0649999999999997 C 1.900563720703125 1.0649999999999997 1.966563720703125 0.9989999999999998 2.023563720703125 0.9329999999999998 C 2.023563720703125 0.9329999999999998 1.9980637207031249 1.0259999999999998 1.9695637207031251 1.1234999999999997 C 1.825563720703125 1.164 1.678563720703125 1.263 1.678563720703125 1.3695 M 1.896063720703125 1.3469999999999998 C 1.8810637207031249 1.3784999999999998 1.834563720703125 1.398 1.812063720703125 1.398 C 1.792563720703125 1.398 1.773063720703125 1.3754999999999997 1.773063720703125 1.3575 C 1.773063720703125 1.3064999999999998 1.848063720703125 1.2405 1.944063720703125 1.2045 C 1.924563720703125 1.2674999999999998 1.906563720703125 1.323 1.896063720703125 1.3469999999999998 M 3.55651611328125 0.17699999999999982 C 3.55651611328125 0.11999999999999977 3.40051611328125 -2.220446049250313e-16 3.27751611328125 -2.220446049250313e-16 C 3.00301611328125 -2.220446049250313e-16 2.74801611328125 0.4754999999999998 2.74801611328125 0.7544999999999998 C 2.74801611328125 0.8714999999999998 2.93401611328125 0.9929999999999998 3.03751611328125 0.9929999999999998 C 3.09451611328125 0.9929999999999998 3.18301611328125 0.8999999999999998 3.2490161132812503 0.8114999999999998 C 3.22801611328125 0.8834999999999998 3.20401611328125 0.9629999999999999 3.17851611328125 1.041 C 3.03751611328125 1.0724999999999998 2.87401611328125 1.1204999999999998 2.78701611328125 1.1624999999999999 C 2.74051611328125 1.1849999999999998 2.67901611328125 1.2839999999999998 2.67901611328125 1.3364999999999998 C 2.67901611328125 1.3935 2.88001611328125 1.515 2.96551611328125 1.515 C 3.04351611328125 1.515 3.18151611328125 1.4625 3.21751611328125 1.3829999999999998 C 3.24451611328125 1.3215 3.28051611328125 1.2194999999999998 3.31651611328125 1.1099999999999999 L 3.34051611328125 1.1099999999999999 C 3.36151611328125 1.1099999999999999 3.42451611328125 1.1564999999999999 3.44851611328125 1.1564999999999999 C 3.47101611328125 1.1564999999999999 3.50851611328125 1.0904999999999998 3.50851611328125 1.0649999999999997 C 3.50851611328125 1.0379999999999998 3.42601611328125 1.0079999999999998 3.39301611328125 1.0079999999999998 C 3.38101611328125 1.0079999999999998 3.3660161132812503 1.0094999999999998 3.34951611328125 1.011 C 3.40351611328125 0.8384999999999998 3.44851611328125 0.6719999999999998 3.44851611328125 0.6344999999999998 C 3.44851611328125 0.6104999999999998 3.3660161132812503 0.5639999999999998 3.34501611328125 0.5639999999999998 C 3.3285161132812497 0.5639999999999998 3.32251611328125 0.5759999999999998 3.31351611328125 0.5924999999999998 C 3.17701611328125 0.8249999999999998 3.07801611328125 0.8804999999999998 3.03151611328125 0.8804999999999998 C 2.99551611328125 0.8804999999999998 2.94451611328125 0.8279999999999998 2.94451611328125 0.7799999999999998 C 2.94451611328125 0.5489999999999998 3.14701611328125 0.09749999999999981 3.33751611328125 0.09749999999999981 C 3.36901611328125 0.09749999999999981 3.40201611328125 0.12749999999999984 3.40201611328125 0.1589999999999998 C 3.40201611328125 0.1994999999999998 3.38251611328125 0.24599999999999977 3.36151611328125 0.29849999999999977 C 3.35401611328125 0.3164999999999998 3.34801611328125 0.3284999999999998 3.34801611328125 0.33899999999999986 C 3.34801611328125 0.36599999999999977 3.41701611328125 0.4019999999999998 3.44101611328125 0.4019999999999998 C 3.45301611328125 0.4019999999999998 3.46051611328125 0.39149999999999985 3.4695161132812498 0.3779999999999998 C 3.5070161132812503 0.3164999999999998 3.55651611328125 0.2204999999999998 3.55651611328125 0.17699999999999982 M 3.08101611328125 1.323 C 3.06151611328125 1.3664999999999998 3.00301611328125 1.4234999999999998 2.9775161132812498 1.4234999999999998 C 2.93701611328125 1.4234999999999998 2.85151611328125 1.3379999999999999 2.85151611328125 1.287 C 2.85151611328125 1.269 2.86651611328125 1.2464999999999997 2.88751611328125 1.2344999999999997 C 2.94001611328125 1.2014999999999998 3.04651611328125 1.1684999999999999 3.14551611328125 1.1444999999999999 C 3.12151611328125 1.2165 3.09901611328125 1.2794999999999999 3.08101611328125 1.323 M 3.930049072265625 0.9614999999999998 C 3.916549072265625 0.9614999999999998 3.903049072265625 0.9509999999999998 3.903049072265625 0.9344999999999998 C 3.903049072265625 0.8489999999999998 3.990049072265625 0.5744999999999998 3.990049072265625 0.5249999999999998 C 3.990049072265625 0.46199999999999986 3.799549072265625 0.44699999999999984 3.799549072265625 0.40949999999999986 C 3.799549072265625 0.37049999999999983 3.822049072265625 0.33299999999999985 3.822049072265625 0.30149999999999977 C 3.822049072265625 0.2669999999999998 3.745549072265625 0.21899999999999975 3.702049072265625 0.21899999999999975 C 3.664549072265625 0.21899999999999975 3.601549072265625 0.33599999999999985 3.601549072265625 0.3869999999999998 C 3.601549072265625 0.43799999999999983 3.664549072265625 0.47699999999999976 3.664549072265625 0.47699999999999976 C 3.664549072265625 0.47699999999999976 3.609049072265625 0.6164999999999998 3.556549072265625 0.7109999999999999 C 3.556549072265625 0.7109999999999999 3.535549072265625 0.7469999999999999 3.535549072265625 0.7649999999999998 C 3.535549072265625 0.7814999999999999 3.567049072265625 0.8054999999999999 3.588049072265625 0.8054999999999999 C 3.606049072265625 0.8054999999999999 3.621049072265625 0.7784999999999997 3.621049072265625 0.7784999999999997 C 3.694549072265625 0.6434999999999997 3.747049072265625 0.5204999999999999 3.747049072265625 0.5204999999999999 C 3.747049072265625 0.5204999999999999 3.807049072265625 0.5324999999999999 3.807049072265625 0.5489999999999998 C 3.807049072265625 0.6179999999999999 3.727549072265625 0.8324999999999998 3.727549072265625 0.9494999999999998 C 3.727549072265625 1.0079999999999998 3.847549072265625 1.0649999999999997 3.915049072265625 1.0649999999999997 C 4.023049072265625 1.0649999999999997 4.111549072265625 0.9284999999999999 4.194049072265625 0.7784999999999997 C 4.194049072265625 0.7784999999999997 4.213549072265625 0.7439999999999998 4.213549072265625 0.7259999999999998 C 4.213549072265625 0.7079999999999997 4.182049072265625 0.6839999999999998 4.162549072265625 0.6839999999999998 C 4.143049072265625 0.6839999999999998 4.129549072265625 0.7109999999999999 4.129549072265625 0.7109999999999999 C 4.056049072265625 0.8459999999999999 3.975049072265625 0.9614999999999998 3.930049072265625 0.9614999999999998 M 4.29907763671875 0.7259999999999998 C 4.31257763671875 0.6554999999999997 4.40107763671875 0.47699999999999976 4.45957763671875 0.47699999999999976 C 4.48057763671875 0.47699999999999976 4.50457763671875 0.4934999999999998 4.50457763671875 0.5144999999999998 C 4.50457763671875 0.5549999999999998 4.44307763671875 0.7259999999999998 4.29907763671875 0.7259999999999998 M 4.09957763671875 0.8504999999999998 C 4.09957763671875 0.9674999999999998 4.28107763671875 1.0649999999999997 4.41307763671875 1.0649999999999997 C 4.53457763671875 1.0649999999999997 4.66507763671875 0.9719999999999999 4.76707763671875 0.7784999999999997 C 4.76707763671875 0.7784999999999997 4.78507763671875 0.7439999999999998 4.78507763671875 0.7259999999999998 C 4.78507763671875 0.7079999999999997 4.75357763671875 0.6839999999999998 4.73407763671875 0.6839999999999998 C 4.71457763671875 0.6839999999999998 4.70257763671875 0.7109999999999999 4.70257763671875 0.7109999999999999 C 4.60507763671875 0.9029999999999998 4.48657763671875 0.9584999999999998 4.40557763671875 0.9584999999999998 C 4.34107763671875 0.9584999999999998 4.27657763671875 0.9029999999999998 4.27657763671875 0.8669999999999998 C 4.27657763671875 0.8189999999999998 4.28857763671875 0.7934999999999999 4.28857763671875 0.7934999999999999 C 4.28857763671875 0.7934999999999999 4.36207763671875 0.8144999999999998 4.42957763671875 0.8144999999999998 C 4.52707763671875 0.8144999999999998 4.62307763671875 0.5744999999999998 4.62307763671875 0.49949999999999983 C 4.62307763671875 0.43499999999999983 4.48507763671875 0.35999999999999976 4.40857763671875 0.35999999999999976 C 4.26907763671875 0.35999999999999976 4.09957763671875 0.6809999999999998 4.09957763671875 0.8504999999999998 M 4.872106201171875 0.7259999999999998 C 4.885606201171875 0.6554999999999997 4.974106201171875 0.47699999999999976 5.032606201171875 0.47699999999999976 C 5.053606201171875 0.47699999999999976 5.077606201171875 0.4934999999999998 5.077606201171875 0.5144999999999998 C 5.077606201171875 0.5549999999999998 5.016106201171875 0.7259999999999998 4.872106201171875 0.7259999999999998 M 4.672606201171875 0.8504999999999998 C 4.672606201171875 0.9674999999999998 4.854106201171875 1.0649999999999997 4.986106201171875 1.0649999999999997 C 5.107606201171875 1.0649999999999997 5.238106201171875 0.9719999999999999 5.340106201171875 0.7784999999999997 C 5.340106201171875 0.7784999999999997 5.358106201171875 0.7439999999999998 5.358106201171875 0.7259999999999998 C 5.358106201171875 0.7079999999999997 5.326606201171875 0.6839999999999998 5.307106201171875 0.6839999999999998 C 5.287606201171875 0.6839999999999998 5.275606201171875 0.7109999999999999 5.275606201171875 0.7109999999999999 C 5.178106201171875 0.9029999999999998 5.059606201171875 0.9584999999999998 4.978606201171875 0.9584999999999998 C 4.914106201171875 0.9584999999999998 4.849606201171875 0.9029999999999998 4.849606201171875 0.8669999999999998 C 4.849606201171875 0.8189999999999998 4.861606201171875 0.7934999999999999 4.861606201171875 0.7934999999999999 C 4.861606201171875 0.7934999999999999 4.935106201171875 0.8144999999999998 5.002606201171875 0.8144999999999998 C 5.100106201171875 0.8144999999999998 5.196106201171875 0.5744999999999998 5.196106201171875 0.49949999999999983 C 5.196106201171875 0.43499999999999983 5.058106201171875 0.35999999999999976 4.981606201171875 0.35999999999999976 C 4.842106201171875 0.35999999999999976 4.672606201171875 0.6809999999999998 4.672606201171875 0.8504999999999998 M 5.758634765625 0.9194999999999998 C 5.758634765625 0.8399999999999999 5.8516347656250005 0.5474999999999998 5.8516347656250005 0.47699999999999976 C 5.8516347656250005 0.42149999999999976 5.770634765625 0.35999999999999976 5.725634765625 0.35999999999999976 C 5.647634765625 0.35999999999999976 5.500634765625 0.4484999999999998 5.500634765625 0.4484999999999998 C 5.500634765625 0.4484999999999998 5.430134765625 0.35999999999999976 5.404634765625 0.35999999999999976 C 5.382134765625 0.35999999999999976 5.362634765625 0.37049999999999983 5.353634765625 0.39149999999999985 C 5.322134765625 0.4934999999999998 5.208134765625 0.9479999999999998 5.208134765625 0.9869999999999999 C 5.208134765625 1.0274999999999999 5.296634765625 1.0649999999999997 5.331134765625 1.0649999999999997 C 5.353634765625 1.0649999999999997 5.358134765625 1.0499999999999998 5.364134765625 1.0304999999999997 C 5.373134765625 0.9869999999999999 5.442134765625 0.6839999999999998 5.481134765625 0.5849999999999997 C 5.503634765625 0.5279999999999998 5.587634765625 0.4904999999999998 5.619134765625 0.4904999999999998 C 5.6386347656249995 0.4904999999999998 5.664134765625 0.5159999999999998 5.664134765625 0.5414999999999998 C 5.664134765625 0.5984999999999998 5.580134765625 0.8384999999999998 5.580134765625 0.9344999999999998 C 5.580134765625 1.0019999999999998 5.715134765625 1.0649999999999997 5.782634765625 1.0649999999999997 C 5.890634765625 1.0649999999999997 5.979134765625 0.9284999999999999 6.061634765625 0.7784999999999997 C 6.061634765625 0.7784999999999997 6.081134765625 0.7439999999999998 6.081134765625 0.7259999999999998 C 6.081134765625 0.7079999999999997 6.049634765625 0.6839999999999998 6.030134765625 0.6839999999999998 C 6.010634765625 0.6839999999999998 5.997134765625 0.7109999999999999 5.997134765625 0.7109999999999999 C 5.923634765625 0.8459999999999999 5.842634765625 0.9614999999999998 5.797634765625 0.9614999999999998 C 5.784134765625 0.9614999999999998 5.758634765625 0.9389999999999998 5.758634765625 0.9194999999999998 M 6.229661865234375 0.5504999999999998 C 6.229661865234375 0.6314999999999998 6.264161865234375 0.7439999999999998 6.264161865234375 0.8519999999999999 C 6.264161865234375 0.8984999999999999 6.219161865234375 0.9584999999999998 6.174161865234375 0.9584999999999998 C 6.133661865234375 0.9584999999999998 6.085661865234375 0.8804999999999998 6.085661865234375 0.8054999999999999 C 6.085661865234375 0.7559999999999998 6.229661865234375 0.5504999999999998 6.229661865234375 0.5504999999999998 M 6.213161865234375 1.0649999999999997 C 6.312161865234375 1.0649999999999997 6.445661865234375 0.9344999999999998 6.445661865234375 0.8459999999999999 C 6.445661865234375 0.7334999999999998 6.382661865234375 0.5714999999999998 6.382661865234375 0.4259999999999998 C 6.382661865234375 0.3989999999999998 6.292661865234375 0.3404999999999998 6.273161865234375 0.3404999999999998 C 6.252161865234375 0.3404999999999998 6.234161865234375 0.3584999999999998 6.225161865234375 0.3749999999999998 C 6.174161865234375 0.45899999999999985 6.030161865234375 0.6794999999999998 6.030161865234375 0.6794999999999998 C 6.030161865234375 0.6794999999999998 5.896661865234375 0.7454999999999998 5.896661865234375 0.8189999999999998 C 5.896661865234375 0.9119999999999998 6.063161865234375 1.0649999999999997 6.213161865234375 1.0649999999999997 M 7.446131103515625 0.1619999999999998 C 7.446131103515625 0.2024999999999998 7.426631103515625 0.24899999999999978 7.405631103515625 0.30149999999999977 C 7.398131103515625 0.3194999999999998 7.392131103515625 0.3314999999999998 7.392131103515625 0.34199999999999986 C 7.392131103515625 0.3689999999999998 7.461131103515625 0.4049999999999998 7.485131103515625 0.4049999999999998 C 7.497131103515625 0.4049999999999998 7.504631103515625 0.39449999999999985 7.513631103515625 0.3809999999999998 C 7.551131103515625 0.3194999999999998 7.600631103515625 0.2234999999999998 7.600631103515625 0.17999999999999983 C 7.600631103515625 0.10349999999999981 7.437131103515625 -2.220446049250313e-16 7.314131103515625 -2.220446049250313e-16 C 7.090631103515625 -2.220446049250313e-16 6.865631103515625 0.5084999999999998 6.865631103515625 0.7709999999999998 C 6.865631103515625 0.9149999999999998 7.071131103515625 1.0649999999999997 7.209131103515625 1.0649999999999997 C 7.267631103515625 1.0649999999999997 7.335131103515625 1.0514999999999999 7.362131103515625 1.0244999999999997 C 7.408631103515625 0.9779999999999998 7.4401311035156255 0.9209999999999998 7.473131103515625 0.8684999999999998 C 7.482131103515625 0.8534999999999998 7.489631103515625 0.8414999999999998 7.489631103515625 0.8294999999999998 C 7.489631103515625 0.8114999999999998 7.429631103515625 0.7649999999999998 7.411631103515625 0.7649999999999998 C 7.396631103515625 0.7649999999999998 7.389131103515625 0.7739999999999998 7.378631103515625 0.7859999999999998 C 7.308131103515625 0.8744999999999998 7.246631103515625 0.9539999999999998 7.189631103515625 0.9539999999999998 C 7.123631103515625 0.9539999999999998 7.048631103515625 0.8654999999999998 7.048631103515625 0.7799999999999998 C 7.048631103515625 0.5714999999999998 7.227131103515625 0.11699999999999977 7.383131103515625 0.11699999999999977 C 7.4161311035156245 0.11699999999999977 7.446131103515625 0.14249999999999985 7.446131103515625 0.1619999999999998 M 8.365616455078126 0.7784999999999997 C 8.365616455078126 0.7784999999999997 8.386616455078125 0.7439999999999998 8.386616455078125 0.7259999999999998 C 8.386616455078125 0.7079999999999997 8.353616455078125 0.6839999999999998 8.332616455078124 0.6839999999999998 C 8.314616455078125 0.6839999999999998 8.301116455078125 0.7109999999999999 8.301116455078125 0.7109999999999999 C 8.301116455078125 0.7109999999999999 8.230616455078126 0.8579999999999999 8.124116455078125 0.8579999999999999 C 8.109116455078125 0.8579999999999999 8.097116455078124 0.8564999999999998 8.085116455078126 0.8519999999999999 C 8.133116455078126 0.7529999999999999 8.163116455078125 0.6419999999999998 8.163116455078125 0.5624999999999998 C 8.163116455078125 0.4694999999999998 7.999616455078125 0.35999999999999976 7.884116455078125 0.35999999999999976 C 7.723616455078125 0.35999999999999976 7.575116455078125 0.6494999999999997 7.575116455078125 0.8579999999999999 C 7.575116455078125 0.9659999999999999 7.747616455078125 1.0649999999999997 7.852616455078125 1.0649999999999997 C 7.915616455078125 1.0649999999999997 7.974116455078125 1.0199999999999998 8.023616455078125 0.9539999999999998 C 8.044616455078126 0.9554999999999998 8.065616455078125 0.9554999999999998 8.083616455078126 0.9554999999999998 C 8.274116455078126 0.9554999999999998 8.365616455078126 0.7784999999999997 8.365616455078126 0.7784999999999997 M 7.755116455078125 0.8939999999999998 C 7.755116455078125 0.7259999999999998 7.878116455078125 0.47099999999999986 7.954616455078125 0.47099999999999986 C 7.984616455078125 0.47099999999999986 8.025116455078125 0.4979999999999998 8.025116455078125 0.5309999999999998 C 8.025116455078125 0.6029999999999998 7.995116455078125 0.7049999999999998 7.957616455078125 0.7904999999999998 C 7.923116455078125 0.7964999999999998 7.861616455078125 0.8579999999999999 7.861616455078125 0.8879999999999998 C 7.861616455078125 0.9014999999999999 7.869116455078125 0.9119999999999998 7.881116455078125 0.9209999999999998 C 7.860116455078125 0.9464999999999998 7.839116455078125 0.9614999999999998 7.822616455078125 0.9614999999999998 C 7.792616455078125 0.9614999999999998 7.755116455078125 0.9314999999999998 7.755116455078125 0.8939999999999998 M 9.12908642578125 0.9194999999999998 C 9.12908642578125 0.8399999999999999 9.22208642578125 0.5474999999999998 9.22208642578125 0.47699999999999976 C 9.22208642578125 0.42149999999999976 9.13958642578125 0.35999999999999976 9.09458642578125 0.35999999999999976 C 9.01508642578125 0.35999999999999976 8.87258642578125 0.45899999999999985 8.87258642578125 0.45899999999999985 C 8.87258642578125 0.45899999999999985 8.80208642578125 0.35999999999999976 8.73458642578125 0.35999999999999976 C 8.65658642578125 0.35999999999999976 8.52758642578125 0.4484999999999998 8.52758642578125 0.4484999999999998 C 8.52758642578125 0.4484999999999998 8.45558642578125 0.35999999999999976 8.43008642578125 0.35999999999999976 C 8.40758642578125 0.35999999999999976 8.38808642578125 0.37049999999999983 8.38058642578125 0.39149999999999985 C 8.34908642578125 0.4934999999999998 8.23508642578125 0.9464999999999998 8.23508642578125 0.9854999999999998 C 8.23508642578125 1.0259999999999998 8.32058642578125 1.0649999999999997 8.35658642578125 1.0649999999999997 C 8.37908642578125 1.0649999999999997 8.38358642578125 1.0499999999999998 8.38958642578125 1.0304999999999997 C 8.40008642578125 0.9869999999999999 8.46908642578125 0.6839999999999998 8.50808642578125 0.5849999999999997 C 8.53058642578125 0.5279999999999998 8.61608642578125 0.48899999999999977 8.64758642578125 0.48899999999999977 C 8.67008642578125 0.48899999999999977 8.68958642578125 0.5039999999999998 8.68958642578125 0.5309999999999998 C 8.68958642578125 0.5639999999999998 8.59058642578125 0.9464999999999998 8.59058642578125 0.9854999999999998 C 8.59058642578125 1.0259999999999998 8.67758642578125 1.0649999999999997 8.71358642578125 1.0649999999999997 C 8.73608642578125 1.0649999999999997 8.74208642578125 1.0514999999999999 8.74658642578125 1.0304999999999997 C 8.75408642578125 0.9884999999999998 8.82008642578125 0.6809999999999998 8.85308642578125 0.5894999999999998 C 8.86958642578125 0.5399999999999998 8.95358642578125 0.4904999999999998 8.98958642578125 0.4904999999999998 C 9.00908642578125 0.4904999999999998 9.03458642578125 0.5159999999999998 9.03458642578125 0.5414999999999998 C 9.03458642578125 0.5984999999999998 8.95058642578125 0.8609999999999998 8.95058642578125 0.9344999999999998 C 8.95058642578125 1.0019999999999998 9.08558642578125 1.0649999999999997 9.15308642578125 1.0649999999999997 C 9.26108642578125 1.0649999999999997 9.34808642578125 0.9284999999999999 9.43208642578125 0.7784999999999997 C 9.43208642578125 0.7784999999999997 9.451586425781251 0.7439999999999998 9.451586425781251 0.7259999999999998 C 9.451586425781251 0.7079999999999997 9.42008642578125 0.6839999999999998 9.400586425781249 0.6839999999999998 C 9.38108642578125 0.6839999999999998 9.36758642578125 0.7109999999999999 9.36758642578125 0.7109999999999999 C 9.29408642578125 0.8459999999999999 9.21308642578125 0.9614999999999998 9.16808642578125 0.9614999999999998 C 9.15458642578125 0.9614999999999998 9.12908642578125 0.9389999999999998 9.12908642578125 0.9194999999999998 M 9.498084228515625 0.8729999999999998 C 9.498084228515625 0.8234999999999998 9.535584228515624 0.6989999999999998 9.565584228515625 0.6149999999999998 C 9.588084228515624 0.5489999999999998 9.681084228515624 0.4784999999999998 9.718584228515626 0.4784999999999998 C 9.742584228515625 0.4784999999999998 9.775584228515624 0.5084999999999998 9.775584228515624 0.5384999999999998 C 9.775584228515624 0.5954999999999998 9.751584228515625 0.7004999999999998 9.718584228515626 0.7919999999999998 C 9.712584228515626 0.7919999999999998 9.706584228515625 0.7904999999999998 9.700584228515625 0.7904999999999998 C 9.667584228515626 0.7904999999999998 9.604584228515625 0.8519999999999999 9.604584228515625 0.8834999999999998 C 9.604584228515625 0.8999999999999998 9.622584228515626 0.9134999999999998 9.649584228515625 0.9254999999999998 C 9.636084228515625 0.9419999999999998 9.616584228515626 0.9554999999999998 9.601584228515625 0.9554999999999998 C 9.552084228515625 0.9554999999999998 9.498084228515625 0.9134999999999998 9.498084228515625 0.8729999999999998 M 9.811584228515626 0.9539999999999998 C 9.811584228515626 0.9539999999999998 9.849084228515625 0.9554999999999998 9.867084228515624 0.9554999999999998 C 10.057584228515625 0.9554999999999998 10.149084228515624 0.7784999999999997 10.149084228515624 0.7784999999999997 C 10.149084228515624 0.7784999999999997 10.170084228515625 0.7439999999999998 10.170084228515625 0.7259999999999998 C 10.170084228515625 0.7079999999999997 10.137084228515626 0.6839999999999998 10.116084228515625 0.6839999999999998 C 10.098084228515624 0.6839999999999998 10.084584228515626 0.7109999999999999 10.084584228515626 0.7109999999999999 C 10.084584228515626 0.7109999999999999 10.014084228515625 0.8579999999999999 9.907584228515624 0.8579999999999999 C 9.892584228515625 0.8579999999999999 9.868584228515624 0.8519999999999999 9.868584228515624 0.8519999999999999 C 9.925584228515625 0.7349999999999999 9.952584228515626 0.6074999999999998 9.952584228515626 0.5204999999999999 C 9.952584228515626 0.44399999999999984 9.841584228515625 0.35999999999999976 9.775584228515624 0.35999999999999976 C 9.688584228515625 0.35999999999999976 9.600084228515625 0.4484999999999998 9.600084228515625 0.4484999999999998 C 9.600084228515625 0.4484999999999998 9.520584228515625 0.35999999999999976 9.495084228515625 0.35999999999999976 C 9.474084228515625 0.35999999999999976 9.451584228515625 0.37049999999999983 9.447084228515624 0.39149999999999985 C 9.391584228515624 0.5849999999999997 9.211584228515624 1.287 9.211584228515624 1.3394999999999997 C 9.211584228515624 1.3784999999999998 9.292584228515626 1.416 9.330084228515625 1.416 C 9.354084228515624 1.416 9.363084228515625 1.4024999999999999 9.367584228515625 1.3829999999999998 C 9.378084228515625 1.311 9.451584228515625 0.9959999999999998 9.451584228515625 0.9959999999999998 C 9.451584228515625 0.9959999999999998 9.529584228515626 1.0649999999999997 9.645084228515625 1.0649999999999997 C 9.706584228515625 1.0649999999999997 9.766584228515626 1.0124999999999997 9.811584228515626 0.9539999999999998 M 10.498625244140625 0.5234999999999999 C 10.498625244140625 0.5654999999999999 10.452125244140625 0.7469999999999999 10.422125244140625 0.8099999999999998 C 10.380125244140626 0.8969999999999998 10.305125244140624 0.9494999999999998 10.275125244140625 0.9494999999999998 C 10.249625244140624 0.9494999999999998 10.222625244140625 0.9239999999999998 10.222625244140625 0.8894999999999998 C 10.222625244140625 0.7574999999999998 10.342625244140624 0.47999999999999976 10.417625244140625 0.47999999999999976 C 10.441625244140624 0.47999999999999976 10.498625244140625 0.49949999999999983 10.498625244140625 0.5234999999999999 M 10.825625244140625 0.7109999999999999 C 10.752125244140625 0.8459999999999999 10.671125244140626 0.9614999999999998 10.626125244140624 0.9614999999999998 C 10.612625244140625 0.9614999999999998 10.585625244140624 0.9389999999999998 10.585625244140624 0.9194999999999998 C 10.585625244140624 0.7994999999999999 10.687625244140625 0.5504999999999998 10.687625244140625 0.4979999999999998 C 10.687625244140625 0.4604999999999998 10.597625244140625 0.44999999999999984 10.558625244140625 0.44999999999999984 C 10.558625244140625 0.44999999999999984 10.482125244140626 0.35999999999999976 10.362125244140625 0.35999999999999976 C 10.225625244140625 0.35999999999999976 10.047125244140625 0.6914999999999998 10.047125244140625 0.8894999999999998 C 10.047125244140625 0.9704999999999998 10.171625244140625 1.0649999999999997 10.240625244140626 1.0649999999999997 C 10.317125244140625 1.0649999999999997 10.407125244140625 0.9659999999999999 10.407125244140625 0.9659999999999999 C 10.419125244140625 1.0079999999999998 10.543625244140625 1.0649999999999997 10.611125244140625 1.0649999999999997 C 10.719125244140624 1.0649999999999997 10.807625244140626 0.9284999999999999 10.890125244140625 0.7784999999999997 C 10.890125244140625 0.7784999999999997 10.909625244140624 0.7439999999999998 10.909625244140624 0.7259999999999998 C 10.909625244140624 0.7079999999999997 10.878125244140625 0.6839999999999998 10.858625244140626 0.6839999999999998 C 10.839125244140625 0.6839999999999998 10.825625244140625 0.7109999999999999 10.825625244140625 0.7109999999999999 M 11.308653076171876 0.9194999999999998 C 11.308653076171876 0.8399999999999999 11.401653076171876 0.5474999999999998 11.401653076171876 0.47699999999999976 C 11.401653076171876 0.42149999999999976 11.320653076171874 0.35999999999999976 11.275653076171874 0.35999999999999976 C 11.197653076171875 0.35999999999999976 11.050653076171875 0.4484999999999998 11.050653076171875 0.4484999999999998 C 11.050653076171875 0.4484999999999998 10.980153076171876 0.35999999999999976 10.954653076171875 0.35999999999999976 C 10.932153076171875 0.35999999999999976 10.912653076171875 0.37049999999999983 10.903653076171874 0.39149999999999985 C 10.872153076171875 0.4934999999999998 10.758153076171874 0.9479999999999998 10.758153076171874 0.9869999999999999 C 10.758153076171874 1.0274999999999999 10.846653076171876 1.0649999999999997 10.881153076171875 1.0649999999999997 C 10.903653076171874 1.0649999999999997 10.908153076171875 1.0499999999999998 10.914153076171875 1.0304999999999997 C 10.923153076171875 0.9869999999999999 10.992153076171874 0.6839999999999998 11.031153076171876 0.5849999999999997 C 11.053653076171875 0.5279999999999998 11.137653076171874 0.4904999999999998 11.169153076171876 0.4904999999999998 C 11.188653076171875 0.4904999999999998 11.214153076171876 0.5159999999999998 11.214153076171876 0.5414999999999998 C 11.214153076171876 0.5984999999999998 11.130153076171876 0.8384999999999998 11.130153076171876 0.9344999999999998 C 11.130153076171876 1.0019999999999998 11.265153076171876 1.0649999999999997 11.332653076171875 1.0649999999999997 C 11.440653076171875 1.0649999999999997 11.529153076171875 0.9284999999999999 11.611653076171875 0.7784999999999997 C 11.611653076171875 0.7784999999999997 11.631153076171875 0.7439999999999998 11.631153076171875 0.7259999999999998 C 11.631153076171875 0.7079999999999997 11.599653076171876 0.6839999999999998 11.580153076171875 0.6839999999999998 C 11.560653076171874 0.6839999999999998 11.547153076171876 0.7109999999999999 11.547153076171876 0.7109999999999999 C 11.473653076171875 0.8459999999999999 11.392653076171875 0.9614999999999998 11.347653076171875 0.9614999999999998 C 11.334153076171875 0.9614999999999998 11.308653076171876 0.9389999999999998 11.308653076171876 0.9194999999999998 M 12.14868017578125 0.4754999999999998 C 12.15018017578125 0.4664999999999998 12.15468017578125 0.44999999999999984 12.15468017578125 0.4394999999999998 C 12.15468017578125 0.41249999999999976 12.05568017578125 0.35999999999999976 12.02718017578125 0.35999999999999976 C 12.01368017578125 0.35999999999999976 12.00018017578125 0.3674999999999998 11.99418017578125 0.38849999999999985 C 11.97618017578125 0.44999999999999984 11.93568017578125 0.6569999999999998 11.88918017578125 0.7664999999999997 C 11.86968017578125 0.8129999999999998 11.77968017578125 0.9464999999999998 11.71968017578125 0.9464999999999998 C 11.70618017578125 0.9464999999999998 11.67918017578125 0.9239999999999998 11.67918017578125 0.9044999999999999 C 11.67918017578125 0.8414999999999998 11.77668017578125 0.5129999999999998 11.78568017578125 0.4754999999999998 C 11.78868017578125 0.4664999999999998 11.79168017578125 0.44999999999999984 11.79168017578125 0.4394999999999998 C 11.79168017578125 0.41249999999999976 11.69268017578125 0.35999999999999976 11.66418017578125 0.35999999999999976 C 11.65068017578125 0.35999999999999976 11.63868017578125 0.3674999999999998 11.63118017578125 0.38849999999999985 C 11.59668017578125 0.4814999999999998 11.49918017578125 0.8489999999999998 11.49918017578125 0.9194999999999998 C 11.49918017578125 0.9824999999999998 11.61618017578125 1.0649999999999997 11.69418017578125 1.0649999999999997 C 11.75118017578125 1.0649999999999997 11.81718017578125 0.9989999999999998 11.87418017578125 0.9329999999999998 C 11.87418017578125 0.9329999999999998 11.85468017578125 1.0034999999999998 11.83068017578125 1.0844999999999998 C 11.66568017578125 1.1834999999999998 11.52918017578125 1.275 11.52918017578125 1.3695 C 11.52918017578125 1.4204999999999999 11.64168017578125 1.515 11.72118017578125 1.515 C 11.77968017578125 1.515 11.86518017578125 1.4879999999999998 11.89068017578125 1.4385 C 11.91018017578125 1.398 11.95518017578125 1.2434999999999998 12.00168017578125 1.0679999999999998 C 12.12168017578125 0.9989999999999998 12.25068017578125 0.9254999999999998 12.33168017578125 0.7784999999999997 C 12.33168017578125 0.7784999999999997 12.35118017578125 0.7439999999999998 12.35118017578125 0.7259999999999998 C 12.35118017578125 0.7079999999999997 12.31818017578125 0.6839999999999998 12.30018017578125 0.6839999999999998 C 12.28218017578125 0.6839999999999998 12.26718017578125 0.7109999999999999 12.26718017578125 0.7109999999999999 C 12.21018017578125 0.8204999999999998 12.12318017578125 0.8999999999999998 12.02868017578125 0.9644999999999998 L 12.03768017578125 0.9329999999999998 C 12.08868017578125 0.7334999999999998 12.13668017578125 0.5369999999999998 12.14868017578125 0.4754999999999998 M 11.74668017578125 1.3469999999999998 C 11.73168017578125 1.3784999999999998 11.68518017578125 1.398 11.66268017578125 1.398 C 11.64318017578125 1.398 11.62368017578125 1.3754999999999997 11.62368017578125 1.3575 C 11.62368017578125 1.3155 11.69568017578125 1.2584999999999997 11.79918017578125 1.1909999999999998 C 11.77818017578125 1.2599999999999998 11.75868017578125 1.3215 11.74668017578125 1.3469999999999998" fill="#ffffff" fill-rule="nonzero"></path></g><g><path d=" M 2.977861140324519 2.2892596153846156 Q 2.9374765249399033 2.2892596153846156 2.9025726787860573 2.2716634615384614 Q 2.8676688326322113 2.2540673076923077 2.8417072941706727 2.2243557692307694 Q 2.815745755709134 2.1946442307692307 2.8013226787860575 2.1574326923076925 Q 2.7868996018629804 2.120221153846154 2.7868996018629804 2.0804134615384617 Q 2.7868996018629804 2.038875 2.8013226787860575 2.0016634615384614 Q 2.815745755709134 1.964451923076923 2.841418832632211 1.9356057692307693 Q 2.8670919095552883 1.9067596153846154 2.9019957557091343 1.8903173076923077 Q 2.9368996018629803 1.873875 2.977861140324519 1.873875 Q 3.0372842172475956 1.873875 3.075938063401442 1.8986826923076923 Q 3.1145919095552883 1.9234903846153846 3.1342072941706727 1.963298076923077 L 3.0943996018629805 1.9909903846153847 Q 3.076514986478365 1.955221153846154 3.045361140324519 1.9379134615384617 Q 3.0142072941706726 1.9206057692307692 2.976707294170673 1.9206057692307692 Q 2.9455534480168266 1.9206057692307692 2.920168832632211 1.933875 Q 2.894784217247596 1.9471442307692308 2.8766111403245187 1.9699326923076923 Q 2.858438063401442 1.992721153846154 2.848918832632211 2.0215673076923077 Q 2.8393996018629806 2.0504134615384615 2.8393996018629806 2.081567307692308 Q 2.8393996018629806 2.114451923076923 2.8500726787860575 2.1435865384615385 Q 2.860745755709134 2.1727211538461537 2.880361140324519 2.194932692307692 Q 2.8999765249399037 2.2171442307692306 2.925938063401442 2.2298365384615386 Q 2.9518996018629804 2.242528846153846 2.98189960186298 2.242528846153846 Q 3.017091909555288 2.242528846153846 3.0488226787860575 2.224644230769231 Q 3.0805534480168264 2.2067596153846156 3.1088226787860576 2.1698365384615386 L 3.1088226787860576 2.223490384615385 Q 3.053438063401442 2.2892596153846156 2.977861140324519 2.2892596153846156 M 3.1024765249399033 2.121375 L 3.0142072941706726 2.121375 L 3.0142072941706726 2.082144230769231 L 3.146322678786057 2.082144230769231 L 3.146322678786057 2.286375 L 3.1024765249399033 2.286375 L 3.1024765249399033 2.121375 M 3.3765087890624996 2.0296442307692306 Q 3.3384318659855765 2.0302211538461536 3.3092972506009612 2.048971153846154 Q 3.280162635216346 2.0677211538461537 3.2680472506009615 2.100605769230769 L 3.2680472506009615 2.286375 L 3.2172780198317303 2.286375 L 3.2172780198317303 1.985221153846154 L 3.264585712139423 1.985221153846154 L 3.264585712139423 2.055028846153846 Q 3.280162635216346 2.023875 3.305835712139423 2.004548076923077 Q 3.3315087890624997 1.985221153846154 3.3597780198317304 1.9829134615384616 Q 3.365547250600961 1.9829134615384616 3.369585712139423 1.9829134615384616 Q 3.3736241736778845 1.9829134615384616 3.3765087890624996 1.9834903846153846 L 3.3765087890624996 2.0296442307692306 M 3.551288874699519 2.292144230769231 Q 3.5172504131610576 2.292144230769231 3.48955810546875 2.2797403846153848 Q 3.461865797776442 2.2673365384615387 3.4416734900841344 2.2457019230769233 Q 3.421481182391827 2.224067307692308 3.4105196439302885 2.195798076923077 Q 3.39955810546875 2.167528846153846 3.39955810546875 2.136375 Q 3.39955810546875 2.104644230769231 3.4105196439302885 2.076375 Q 3.421481182391827 2.0481057692307694 3.4416734900841344 2.026471153846154 Q 3.461865797776442 2.0048365384615385 3.4898465670072114 1.9924326923076923 Q 3.5178273362379806 1.9800288461538462 3.551865797776442 1.9800288461538462 Q 3.585327336237981 1.9800288461538462 3.613019643930288 1.9924326923076923 Q 3.6407119516225963 2.0048365384615385 3.6611927208533652 2.026471153846154 Q 3.6816734900841346 2.0481057692307694 3.692635028545673 2.076375 Q 3.7035965670072115 2.104644230769231 3.7035965670072115 2.136375 Q 3.7035965670072115 2.167528846153846 3.692635028545673 2.195798076923077 Q 3.6816734900841346 2.224067307692308 3.6614811823918267 2.2457019230769233 Q 3.6412888746995193 2.2673365384615387 3.61330810546875 2.2797403846153848 Q 3.585327336237981 2.292144230769231 3.551288874699519 2.292144230769231 M 3.4514811823918268 2.136951923076923 Q 3.4514811823918268 2.1681057692307695 3.4650388746995193 2.1934903846153846 Q 3.4785965670072114 2.218875 3.5010965670072114 2.2335865384615383 Q 3.5235965670072114 2.248298076923077 3.551288874699519 2.248298076923077 Q 3.5789811823918267 2.248298076923077 3.6017696439302886 2.233298076923077 Q 3.62455810546875 2.218298076923077 3.6381157977764422 2.192625 Q 3.6516734900841348 2.166951923076923 3.6516734900841348 2.135798076923077 Q 3.6516734900841348 2.104644230769231 3.6381157977764422 2.0792596153846152 Q 3.62455810546875 2.053875 3.6017696439302886 2.038875 Q 3.5789811823918267 2.023875 3.551288874699519 2.023875 Q 3.5235965670072114 2.023875 3.5010965670072114 2.0391634615384615 Q 3.4785965670072114 2.054451923076923 3.4650388746995193 2.0798365384615387 Q 3.4514811823918268 2.105221153846154 3.4514811823918268 2.136951923076923 M 4.1322467510516825 1.985221153846154 L 4.181285212590144 1.985221153846154 L 4.053208289513221 2.286375 L 4.008785212590144 2.286375 L 3.9505159818209132 2.144451923076923 L 3.8928236741286053 2.286375 L 3.8484005972055284 2.286375 L 3.7203236741286054 1.985221153846154 L 3.768785212590144 1.985221153846154 L 3.872631366436298 2.2361826923076924 L 3.9210929048978365 2.112721153846154 L 3.8703236741286053 1.985798076923077 L 3.9147467510516822 1.985798076923077 L 3.9505159818209132 2.081567307692308 L 3.986285212590144 1.985798076923077 L 4.030708289513221 1.985798076923077 L 3.980515981820913 2.112721153846154 L 4.028977520282452 2.2361826923076924 L 4.1322467510516825 1.985221153846154 M 4.6070310621995185 1.9627211538461538 Q 4.600107985276442 1.9546442307692309 4.588569523737981 1.9471442307692308 Q 4.577031062199519 1.9396442307692308 4.562607985276442 1.9335865384615385 Q 4.548184908353365 1.9275288461538462 4.531165677584134 1.923778846153846 Q 4.5141464468149035 1.9200288461538462 4.495684908353365 1.9200288461538462 Q 4.448377216045673 1.9200288461538462 4.425877216045673 1.9379134615384617 Q 4.403377216045673 1.955798076923077 4.403377216045673 1.986951923076923 Q 4.403377216045673 2.008875 4.414915677584134 2.0215673076923077 Q 4.426454139122596 2.0342596153846153 4.450396446814904 2.0423365384615386 Q 4.474338754507211 2.0504134615384615 4.511261831430288 2.059067307692308 Q 4.553954139122595 2.0682980769230768 4.585107985276442 2.081567307692308 Q 4.616261831430288 2.0948365384615384 4.632992600661058 2.117048076923077 Q 4.649723369891826 2.1392596153846153 4.649723369891826 2.1761826923076923 Q 4.649723369891826 2.205605769230769 4.638473369891827 2.2272403846153845 Q 4.627223369891826 2.248875 4.6070310621995185 2.2630096153846155 Q 4.586838754507211 2.2771442307692307 4.5597233698918265 2.2837788461538464 Q 4.532607985276442 2.2904134615384617 4.500877216045673 2.2904134615384617 Q 4.469723369891827 2.2904134615384617 4.440011831430288 2.2837788461538464 Q 4.410300292968749 2.2771442307692307 4.383761831430288 2.264451923076923 Q 4.357223369891827 2.2517596153846156 4.334146446814904 2.2327211538461538 L 4.358954139122596 2.188875 Q 4.368184908353365 2.1986826923076923 4.382896446814903 2.208201923076923 Q 4.397607985276442 2.217721153846154 4.416357985276441 2.225798076923077 Q 4.435107985276442 2.233875 4.457031062199519 2.238778846153846 Q 4.478954139122596 2.2436826923076922 4.502031062199519 2.2436826923076922 Q 4.545877216045673 2.2436826923076922 4.570107985276442 2.2278173076923076 Q 4.594338754507211 2.2119519230769233 4.594338754507211 2.181375 Q 4.594338754507211 2.158298076923077 4.580781062199518 2.144451923076923 Q 4.567223369891827 2.1306057692307694 4.540684908353365 2.121375 Q 4.5141464468149035 2.1121442307692306 4.47606952373798 2.1029134615384617 Q 4.434531062199519 2.0925288461538463 4.406261831430288 2.0801250000000002 Q 4.377992600661058 2.0677211538461537 4.363857985276442 2.0475288461538463 Q 4.3497233698918265 2.0273365384615385 4.3497233698918265 1.9950288461538461 Q 4.3497233698918265 1.955798076923077 4.368761831430288 1.9286826923076923 Q 4.387800292968749 1.9015673076923076 4.421261831430288 1.8877211538461538 Q 4.454723369891826 1.873875 4.496838754507211 1.873875 Q 4.524531062199519 1.873875 4.548473369891826 1.8796442307692307 Q 4.572415677584134 1.8854134615384615 4.593184908353365 1.895798076923077 Q 4.613954139122596 1.9061826923076923 4.6312618314302885 1.9206057692307692 L 4.6070310621995185 1.9627211538461538 M 5.163766902043269 2.286375 L 5.112997671274038 2.286375 L 5.112997671274038 2.1179134615384614 Q 5.112997671274038 2.0706057692307693 5.0977092097355765 2.0481057692307694 Q 5.082420748197116 2.0256057692307694 5.0524207481971155 2.0256057692307694 Q 5.021843825120192 2.0256057692307694 4.9970361328125 2.047817307692308 Q 4.972228440504808 2.0700288461538463 4.961843825120193 2.105221153846154 L 4.961843825120193 2.286375 L 4.9110745943509615 2.286375 L 4.9110745943509615 2.1179134615384614 Q 4.9110745943509615 2.0700288461538463 4.896074594350962 2.047817307692308 Q 4.881074594350961 2.0256057692307694 4.851074594350962 2.0256057692307694 Q 4.821074594350962 2.0256057692307694 4.795978440504808 2.047240384615385 Q 4.7708822866586535 2.0688750000000002 4.760497671274038 2.104644230769231 L 4.760497671274038 2.286375 L 4.709728440504808 2.286375 L 4.709728440504808 1.985221153846154 L 4.755882286658654 1.985221153846154 L 4.755882286658654 2.0498365384615385 Q 4.774343825120193 2.016375 4.803766902043269 1.998201923076923 Q 4.833189978966346 1.9800288461538462 4.870113055889423 1.9800288461538462 Q 4.907613055889423 1.9800288461538462 4.930113055889423 2.0005096153846154 Q 4.952613055889423 2.0209903846153847 4.9578053635817305 2.053298076923077 Q 4.977997671274038 2.017528846153846 5.0068438251201925 1.9987788461538463 Q 5.035689978966346 1.9800288461538462 5.072613055889423 1.9800288461538462 Q 5.0985745943509615 1.9800288461538462 5.116170748197115 1.989548076923077 Q 5.133766902043269 1.9990673076923078 5.1441515174278845 2.0160865384615385 Q 5.1545361328125 2.0331057692307692 5.159151517427885 2.0561826923076922 Q 5.163766902043269 2.0792596153846152 5.163766902043269 2.106375 L 5.163766902043269 2.286375 M 5.219157996544472 2.1992596153846153 Q 5.219157996544472 2.1704134615384616 5.23560030423678 2.149355769230769 Q 5.252042611929087 2.128298076923077 5.280888765775241 2.1167596153846153 Q 5.309734919621395 2.105221153846154 5.347811842698317 2.105221153846154 Q 5.368004150390625 2.105221153846154 5.390504150390625 2.108394230769231 Q 5.413004150390625 2.1115673076923076 5.430311842698318 2.1179134615384614 L 5.430311842698318 2.0959903846153844 Q 5.430311842698318 2.061375 5.409542611929087 2.041471153846154 Q 5.388773381159856 2.0215673076923077 5.350696458082933 2.0215673076923077 Q 5.3258887657752405 2.0215673076923077 5.3031003042367795 2.0305096153846156 Q 5.2803118426983175 2.039451923076923 5.254927227313702 2.0561826923076922 L 5.236465688852164 2.0204134615384617 Q 5.265888765775241 2.000221153846154 5.295311842698317 1.990125 Q 5.3247349196213944 1.9800288461538462 5.356465688852164 1.9800288461538462 Q 5.414157996544471 1.9800288461538462 5.44761953500601 2.012048076923077 Q 5.481081073467548 2.0440673076923077 5.481081073467548 2.101182692307692 L 5.481081073467548 2.2286826923076926 Q 5.481081073467548 2.2379134615384615 5.484831073467548 2.2422403846153847 Q 5.488581073467548 2.246567307692308 5.497234919621395 2.247144230769231 L 5.497234919621395 2.286375 Q 5.4897349196213945 2.287528846153846 5.484254150390625 2.288105769230769 Q 5.478773381159856 2.288682692307692 5.475311842698318 2.288682692307692 Q 5.457427227313702 2.288682692307692 5.448484919621395 2.278875 Q 5.439542611929087 2.269067307692308 5.43838876577524 2.2581057692307693 L 5.437234919621394 2.2390673076923076 Q 5.41761953500601 2.264451923076923 5.385888765775241 2.278298076923077 Q 5.354157996544472 2.292144230769231 5.323004150390625 2.292144230769231 Q 5.293004150390625 2.292144230769231 5.269350304236779 2.2797403846153848 Q 5.245696458082933 2.2673365384615387 5.2324272273137025 2.2462788461538463 Q 5.219157996544472 2.225221153846154 5.219157996544472 2.1992596153846153 M 5.415311842698317 2.2206057692307692 Q 5.422234919621395 2.2125288461538464 5.426273381159856 2.2041634615384615 Q 5.430311842698318 2.195798076923077 5.430311842698318 2.1900288461538464 L 5.430311842698318 2.1525288461538463 Q 5.412427227313702 2.145605769230769 5.392811842698317 2.1418557692307694 Q 5.3731964580829334 2.1381057692307692 5.354157996544472 2.1381057692307692 Q 5.315504150390625 2.1381057692307692 5.291561842698318 2.153394230769231 Q 5.26761953500601 2.1686826923076925 5.26761953500601 2.1952211538461537 Q 5.26761953500601 2.2096442307692308 5.275407996544471 2.2232019230769233 Q 5.283196458082933 2.2367596153846154 5.298484919621394 2.2454134615384618 Q 5.313773381159856 2.2540673076923077 5.336273381159856 2.2540673076923077 Q 5.359927227313702 2.2540673076923077 5.381273381159856 2.244548076923077 Q 5.40261953500601 2.2350288461538463 5.415311842698317 2.2206057692307692 M 5.721667292668269 2.0296442307692306 Q 5.683590369591347 2.0302211538461536 5.654455754206731 2.048971153846154 Q 5.625321138822115 2.0677211538461537 5.613205754206731 2.100605769230769 L 5.613205754206731 2.286375 L 5.5624365234375 2.286375 L 5.5624365234375 1.985221153846154 L 5.609744215745192 1.985221153846154 L 5.609744215745192 2.055028846153846 Q 5.625321138822115 2.023875 5.650994215745192 2.004548076923077 Q 5.676667292668269 1.985221153846154 5.7049365234375005 1.9829134615384616 Q 5.710705754206731 1.9829134615384616 5.714744215745193 1.9829134615384616 Q 5.718782677283654 1.9829134615384616 5.721667292668269 1.9834903846153846 L 5.721667292668269 2.0296442307692306 M 5.927615027794472 2.271375 Q 5.921268873948318 2.2742596153846155 5.910307335486779 2.278875 Q 5.899345797025241 2.2834903846153844 5.884922720102164 2.286951923076923 Q 5.8704996431790875 2.2904134615384617 5.854345797025241 2.2904134615384617 Q 5.835884258563703 2.2904134615384617 5.820307335486779 2.2837788461538464 Q 5.804730412409857 2.2771442307692307 5.795499643179087 2.2630096153846155 Q 5.786268873948318 2.248875 5.786268873948318 2.227528846153846 L 5.786268873948318 2.0250288461538464 L 5.745307335486779 2.0250288461538464 L 5.745307335486779 1.985221153846154 L 5.786268873948318 1.985221153846154 L 5.786268873948318 1.8848365384615384 L 5.837038104717549 1.8848365384615384 L 5.837038104717549 1.985221153846154 L 5.904538104717549 1.985221153846154 L 5.904538104717549 2.0250288461538464 L 5.837038104717549 2.0250288461538464 L 5.837038104717549 2.2119519230769233 Q 5.838191950871395 2.228105769230769 5.8479996431790875 2.235894230769231 Q 5.85780733548678 2.2436826923076922 5.8710765662560105 2.2436826923076922 Q 5.88607656625601 2.2436826923076922 5.898768873948318 2.2384903846153845 Q 5.911461181640625 2.233298076923077 5.915499643179087 2.2309903846153847 L 5.927615027794472 2.271375 M 5.970878342848558 2.286375 L 5.970878342848558 2.2217596153846153 L 6.013570650540866 2.2217596153846153 L 6.013570650540866 2.286375 L 5.970878342848558 2.286375 M 6.409926663912261 2.2892596153846156 Q 6.369542048527646 2.2892596153846156 6.3346382023737995 2.2716634615384614 Q 6.299734356219953 2.2540673076923077 6.273772817758415 2.2243557692307694 Q 6.247811279296877 2.1946442307692307 6.233388202373799 2.1574326923076925 Q 6.2189651254507226 2.120221153846154 6.2189651254507226 2.0804134615384617 Q 6.2189651254507226 2.038875 6.233388202373799 2.0016634615384614 Q 6.247811279296877 1.964451923076923 6.273484356219953 1.9356057692307693 Q 6.29915743314303 1.9067596153846154 6.3340612792968765 1.8903173076923077 Q 6.368965125450723 1.873875 6.409926663912261 1.873875 Q 6.469349740835338 1.873875 6.508003586989184 1.8986826923076923 Q 6.5466574331430305 1.9234903846153846 6.566272817758415 1.963298076923077 L 6.526465125450723 1.9909903846153847 Q 6.508580510066107 1.955221153846154 6.4774266639122615 1.9379134615384617 Q 6.446272817758415 1.9206057692307692 6.408772817758415 1.9206057692307692 Q 6.377618971604568 1.9206057692307692 6.352234356219953 1.933875 Q 6.326849740835338 1.9471442307692308 6.308676663912261 1.9699326923076923 Q 6.2905035869891845 1.992721153846154 6.280984356219953 2.0215673076923077 Q 6.271465125450723 2.0504134615384615 6.271465125450723 2.081567307692308 Q 6.271465125450723 2.114451923076923 6.282138202373799 2.1435865384615385 Q 6.292811279296877 2.1727211538461537 6.3124266639122615 2.194932692307692 Q 6.332042048527645 2.2171442307692306 6.358003586989184 2.2298365384615386 Q 6.383965125450723 2.242528846153846 6.413965125450723 2.242528846153846 Q 6.44915743314303 2.242528846153846 6.4808882023738 2.224644230769231 Q 6.512618971604569 2.2067596153846156 6.540888202373799 2.1698365384615386 L 6.540888202373799 2.223490384615385 Q 6.485503586989184 2.2892596153846156 6.409926663912261 2.2892596153846156 M 6.534542048527646 2.121375 L 6.446272817758415 2.121375 L 6.446272817758415 2.082144230769231 L 6.5783882023738 2.082144230769231 L 6.5783882023738 2.286375 L 6.534542048527646 2.286375 L 6.534542048527646 2.121375 M 6.808574312650242 2.0296442307692306 Q 6.770497389573319 2.0302211538461536 6.741362774188704 2.048971153846154 Q 6.712228158804088 2.0677211538461537 6.700112774188703 2.100605769230769 L 6.700112774188703 2.286375 L 6.649343543419473 2.286375 L 6.649343543419473 1.985221153846154 L 6.696651235727165 1.985221153846154 L 6.696651235727165 2.055028846153846 Q 6.712228158804088 2.023875 6.737901235727165 2.004548076923077 Q 6.763574312650242 1.985221153846154 6.791843543419473 1.9829134615384616 Q 6.797612774188703 1.9829134615384616 6.8016512357271655 1.9829134615384616 Q 6.805689697265627 1.9829134615384616 6.808574312650242 1.9834903846153846 L 6.808574312650242 2.0296442307692306 M 6.983354398287261 2.292144230769231 Q 6.9493159367488 2.292144230769231 6.921623629056492 2.2797403846153848 Q 6.893931321364184 2.2673365384615387 6.873739013671877 2.2457019230769233 Q 6.853546705979569 2.224067307692308 6.84258516751803 2.195798076923077 Q 6.831623629056492 2.167528846153846 6.831623629056492 2.136375 Q 6.831623629056492 2.104644230769231 6.84258516751803 2.076375 Q 6.853546705979569 2.0481057692307694 6.873739013671877 2.026471153846154 Q 6.893931321364184 2.0048365384615385 6.921912090594954 1.9924326923076923 Q 6.949892859825723 1.9800288461538462 6.983931321364184 1.9800288461538462 Q 7.017392859825723 1.9800288461538462 7.04508516751803 1.9924326923076923 Q 7.072777475210338 2.0048365384615385 7.093258244441107 2.026471153846154 Q 7.113739013671877 2.0481057692307694 7.124700552133415 2.076375 Q 7.135662090594954 2.104644230769231 7.135662090594954 2.136375 Q 7.135662090594954 2.167528846153846 7.124700552133415 2.195798076923077 Q 7.113739013671877 2.224067307692308 7.093546705979569 2.2457019230769233 Q 7.073354398287261 2.2673365384615387 7.045373629056492 2.2797403846153848 Q 7.017392859825723 2.292144230769231 6.983354398287261 2.292144230769231 M 6.883546705979569 2.136951923076923 Q 6.883546705979569 2.1681057692307695 6.897104398287261 2.1934903846153846 Q 6.910662090594953 2.218875 6.933162090594953 2.2335865384615383 Q 6.955662090594953 2.248298076923077 6.983354398287261 2.248298076923077 Q 7.0110467059795685 2.248298076923077 7.03383516751803 2.233298076923077 Q 7.056623629056491 2.218298076923077 7.070181321364184 2.192625 Q 7.0837390136718765 2.166951923076923 7.0837390136718765 2.135798076923077 Q 7.0837390136718765 2.104644230769231 7.070181321364184 2.0792596153846152 Q 7.056623629056491 2.053875 7.03383516751803 2.038875 Q 7.0110467059795685 2.023875 6.983354398287261 2.023875 Q 6.955662090594953 2.023875 6.933162090594953 2.0391634615384615 Q 6.910662090594953 2.054451923076923 6.897104398287261 2.0798365384615387 Q 6.883546705979569 2.105221153846154 6.883546705979569 2.136951923076923 M 7.564312274639424 1.985221153846154 L 7.613350736177885 1.985221153846154 L 7.485273813100963 2.286375 L 7.440850736177886 2.286375 L 7.3825815054086545 2.144451923076923 L 7.324889197716347 2.286375 L 7.28046612079327 2.286375 L 7.152389197716348 1.985221153846154 L 7.200850736177886 1.985221153846154 L 7.304696890024039 2.2361826923076924 L 7.353158428485578 2.112721153846154 L 7.302389197716347 1.985798076923077 L 7.346812274639424 1.985798076923077 L 7.3825815054086545 2.081567307692308 L 7.418350736177886 1.985798076923077 L 7.462773813100963 1.985798076923077 L 7.412581505408655 2.112721153846154 L 7.461043043870194 2.2361826923076924 L 7.564312274639424 1.985221153846154 M 7.962942739633414 2.2892596153846156 Q 7.922558124248799 2.2892596153846156 7.887654278094953 2.2716634615384614 Q 7.852750431941106 2.2540673076923077 7.826788893479568 2.2243557692307694 Q 7.80082735501803 2.1946442307692307 7.7864042780949525 2.1574326923076925 Q 7.771981201171876 2.120221153846154 7.771981201171876 2.0804134615384617 Q 7.771981201171876 2.038875 7.7864042780949525 2.0016634615384614 Q 7.80082735501803 1.964451923076923 7.826500431941106 1.9356057692307693 Q 7.852173508864183 1.9067596153846154 7.88707735501803 1.8903173076923077 Q 7.921981201171876 1.873875 7.962942739633414 1.873875 Q 8.02236581655649 1.873875 8.061019662710338 1.8986826923076923 Q 8.099673508864184 1.9234903846153846 8.119288893479569 1.963298076923077 L 8.079481201171875 1.9909903846153847 Q 8.06159658578726 1.955221153846154 8.030442739633415 1.9379134615384617 Q 7.9992888934795685 1.9206057692307692 7.961788893479568 1.9206057692307692 Q 7.930635047325722 1.9206057692307692 7.9052504319411065 1.933875 Q 7.879865816556491 1.9471442307692308 7.861692739633415 1.9699326923076923 Q 7.843519662710338 1.992721153846154 7.8340004319411065 2.0215673076923077 Q 7.824481201171876 2.0504134615384615 7.824481201171876 2.081567307692308 Q 7.824481201171876 2.114451923076923 7.835154278094953 2.1435865384615385 Q 7.84582735501803 2.1727211538461537 7.865442739633415 2.194932692307692 Q 7.885058124248799 2.2171442307692306 7.911019662710338 2.2298365384615386 Q 7.936981201171876 2.242528846153846 7.966981201171876 2.242528846153846 Q 8.002173508864184 2.242528846153846 8.033904278094953 2.224644230769231 Q 8.065635047325722 2.2067596153846156 8.093904278094953 2.1698365384615386 L 8.093904278094953 2.223490384615385 Q 8.038519662710337 2.2892596153846156 7.962942739633414 2.2892596153846156 M 8.0875581242488 2.121375 L 7.9992888934795685 2.121375 L 7.9992888934795685 2.082144230769231 L 8.131404278094953 2.082144230769231 L 8.131404278094953 2.286375 L 8.0875581242488 2.286375 L 8.0875581242488 2.121375 M 8.361590388371395 2.0296442307692306 Q 8.323513465294472 2.0302211538461536 8.294378849909856 2.048971153846154 Q 8.265244234525241 2.0677211538461537 8.253128849909857 2.100605769230769 L 8.253128849909857 2.286375 L 8.202359619140625 2.286375 L 8.202359619140625 1.985221153846154 L 8.249667311448318 1.985221153846154 L 8.249667311448318 2.055028846153846 Q 8.265244234525241 2.023875 8.290917311448318 2.004548076923077 Q 8.316590388371395 1.985221153846154 8.344859619140625 1.9829134615384616 Q 8.350628849909857 1.9829134615384616 8.354667311448317 1.9829134615384616 Q 8.358705772986779 1.9829134615384616 8.361590388371395 1.9834903846153846 L 8.361590388371395 2.0296442307692306 M 8.538101243239183 2.292144230769231 Q 8.504062781700721 2.292144230769231 8.476082012469952 2.2797403846153848 Q 8.448101243239183 2.2673365384615387 8.427620474008414 2.2457019230769233 Q 8.407139704777643 2.224067307692308 8.395889704777645 2.195798076923077 Q 8.384639704777644 2.167528846153846 8.384639704777644 2.135798076923077 Q 8.384639704777644 2.0931057692307693 8.404255089393029 2.0579134615384618 Q 8.423870474008414 2.022721153846154 8.45877432016226 2.001375 Q 8.493678166316105 1.9800288461538462 8.538678166316105 1.9800288461538462 Q 8.584255089393029 1.9800288461538462 8.618005089393028 2.0016634615384614 Q 8.65175508939303 2.023298076923077 8.670505089393028 2.0582019230769233 Q 8.68925508939303 2.0931057692307693 8.68925508939303 2.1334903846153845 Q 8.68925508939303 2.1392596153846153 8.688966627854567 2.1447403846153845 Q 8.688678166316105 2.1502211538461538 8.688101243239183 2.1531057692307694 L 8.43829355093149 2.1531057692307694 Q 8.440601243239183 2.182528846153846 8.454735858623797 2.2053173076923076 Q 8.468870474008414 2.228105769230769 8.491370474008413 2.2410865384615386 Q 8.513870474008414 2.2540673076923077 8.539832012469951 2.2540673076923077 Q 8.56752432016226 2.2540673076923077 8.592043550931491 2.240221153846154 Q 8.61656278170072 2.226375 8.62579355093149 2.203875 L 8.669639704777644 2.2159903846153846 Q 8.659832012469952 2.2379134615384615 8.640505089393029 2.2552211538461537 Q 8.621178166316106 2.272528846153846 8.594928166316105 2.2823365384615384 Q 8.568678166316106 2.292144230769231 8.538101243239183 2.292144230769231 M 8.43656278170072 2.1179134615384614 L 8.641947397085337 2.1179134615384614 Q 8.639639704777645 2.0884903846153846 8.625216627854567 2.0659903846153846 Q 8.61079355093149 2.0434903846153847 8.58829355093149 2.030798076923077 Q 8.56579355093149 2.018105769230769 8.538678166316105 2.018105769230769 Q 8.512139704777644 2.018105769230769 8.489639704777645 2.030798076923077 Q 8.467139704777644 2.0434903846153847 8.453005089393029 2.0659903846153846 Q 8.438870474008413 2.0884903846153846 8.43656278170072 2.1179134615384614 M 8.87906475360577 2.292144230769231 Q 8.845026292067308 2.292144230769231 8.817045522836539 2.2797403846153848 Q 8.78906475360577 2.2673365384615387 8.768583984375 2.2457019230769233 Q 8.74810321514423 2.224067307692308 8.736853215144231 2.195798076923077 Q 8.72560321514423 2.167528846153846 8.72560321514423 2.135798076923077 Q 8.72560321514423 2.0931057692307693 8.745218599759616 2.0579134615384618 Q 8.764833984375 2.022721153846154 8.799737830528846 2.001375 Q 8.834641676682692 1.9800288461538462 8.879641676682692 1.9800288461538462 Q 8.925218599759615 1.9800288461538462 8.958968599759615 2.0016634615384614 Q 8.992718599759616 2.023298076923077 9.011468599759615 2.0582019230769233 Q 9.030218599759616 2.0931057692307693 9.030218599759616 2.1334903846153845 Q 9.030218599759616 2.1392596153846153 9.029930138221154 2.1447403846153845 Q 9.029641676682692 2.1502211538461538 9.02906475360577 2.1531057692307694 L 8.779257061298077 2.1531057692307694 Q 8.78156475360577 2.182528846153846 8.795699368990384 2.2053173076923076 Q 8.809833984375 2.228105769230769 8.832333984375 2.2410865384615386 Q 8.854833984375 2.2540673076923077 8.880795522836538 2.2540673076923077 Q 8.908487830528847 2.2540673076923077 8.933007061298078 2.240221153846154 Q 8.957526292067307 2.226375 8.966757061298077 2.203875 L 9.010603215144231 2.2159903846153846 Q 9.000795522836539 2.2379134615384615 8.981468599759616 2.2552211538461537 Q 8.962141676682693 2.272528846153846 8.935891676682692 2.2823365384615384 Q 8.909641676682693 2.292144230769231 8.87906475360577 2.292144230769231 M 8.777526292067307 2.1179134615384614 L 8.982910907451924 2.1179134615384614 Q 8.980603215144232 2.0884903846153846 8.966180138221153 2.0659903846153846 Q 8.951757061298077 2.0434903846153847 8.929257061298078 2.030798076923077 Q 8.906757061298077 2.018105769230769 8.879641676682692 2.018105769230769 Q 8.85310321514423 2.018105769230769 8.830603215144231 2.030798076923077 Q 8.80810321514423 2.0434903846153847 8.793968599759616 2.0659903846153846 Q 8.779833984375 2.0884903846153846 8.777526292067307 2.1179134615384614 M 9.34810518704928 2.286375 L 9.297335956280047 2.286375 L 9.297335956280047 2.1179134615384614 Q 9.297335956280047 2.0700288461538463 9.28262441781851 2.047817307692308 Q 9.267912879356972 2.0256057692307694 9.237912879356971 2.0256057692307694 Q 9.21714364858774 2.0256057692307694 9.196662879356971 2.035990384615385 Q 9.176182110126202 2.046375 9.160316725510818 2.063971153846154 Q 9.144451340895433 2.081567307692308 9.137528263972357 2.104644230769231 L 9.137528263972357 2.286375 L 9.086759033203125 2.286375 L 9.086759033203125 1.985221153846154 L 9.13291287935697 1.985221153846154 L 9.13291287935697 2.0498365384615385 Q 9.145028263972357 2.0284903846153846 9.164066725510818 2.0129134615384614 Q 9.183105187049279 1.9973365384615385 9.207335956280048 1.9886826923076923 Q 9.231566725510817 1.9800288461538462 9.25810518704928 1.9800288461538462 Q 9.284066725510817 1.9800288461538462 9.301662879356972 1.989548076923077 Q 9.319259033203124 1.9990673076923078 9.329355187049279 2.0160865384615385 Q 9.339451340895433 2.0331057692307692 9.343778263972355 2.0561826923076922 Q 9.34810518704928 2.0792596153846152 9.34810518704928 2.106375 L 9.34810518704928 2.286375 M 9.423120680588942 2.286375 L 9.423120680588942 2.2217596153846153 L 9.46581298828125 2.2217596153846153 L 9.46581298828125 2.286375 L 9.423120680588942 2.286375" fill="#faecd3" fill-rule="nonzero"></path></g></g><defs><clipPath id="SvgjsClipPath50554"><path d=" M 0.8240079836052079 -10.873664293189416 h 10.619134911695834 v 10.623664293189416 h -10.619134911695834 Z"></path></clipPath><clipPath id="SvgjsClipPath50549e14c26a9-61c9-4f76-996e-259209a108d4"><path d=" M 0.824007983605207 -10.873664293189416 L 11.443142895301042 -10.873664293189416 L 11.443142895301042 -0.25 L 0.824007983605206 -0.25 Z"></path></clipPath></defs></svg>